<svg xmlns="http://www.w3.org/2000/svg" version="1.1" xmlns:xlink="http://www.w3.org/1999/xlink" xmlns:svgjs="http://svgjs.dev/svgjs" viewBox="0 0 7.603082752333046 5.286009885038509"><g transform="matrix(0.8311204391944368,0,0,0.8311204391944368,3.801541376166523,4.087874095835385)"><rect width="8.677173805447342" height="8.677173805447342" x="-4.338586902723671" y="-6.0770463186857775" fill="#64c6c4"></rect><g transform="matrix(1,0,0,1,0,0)"><path d=" M -1.6958298820187896 -2.2252180866214797 Q -1.7904226966248515 -2.1984702002581953 -1.8803454056326447 -2.2603645166749695 L -1.7525634555289018 -2.425751255042 Q -1.7214502728978427 -2.405503542416462 -1.6963812221599928 -2.4101449533122032 Q -1.6713121714221428 -2.4147863642079446 -1.652970264708687 -2.4385260874185235 Q -1.6364625486665767 -2.459891838308044 -1.6364459785284877 -2.4819938682019367 Q -1.6364294083903987 -2.504095898095829 -1.6554211869588615 -2.518769423466594 Q -1.6799522342764592 -2.5377227270704985 -1.7111352539187945 -2.525168075104564 Q -1.7423182735611298 -2.51261342313863 -1.7986768776876891 -2.4740166908817955 Q -1.8590637175900815 -2.433477455977781 -1.9020615537350585 -2.412991214574105 Q -1.9450593898800357 -2.392504973170429 -1.9971583423704646 -2.3929512347529354 Q -2.049257294860894 -2.3933974963354423 -2.102276010031186 -2.4343610879954936 Q -2.156086049308497 -2.475936076545994 -2.173677774223682 -2.532493845371403 Q -2.1912694991388677 -2.5890516141968125 -2.174368788387438 -2.651815982879183 Q -2.157468077636008 -2.714580351561553 -2.11100191396192 -2.774720983695019 Q -2.03580009643675 -2.872053848858391 -1.9453612888351746 -2.8950608495235173 Q -1.8549224812335987 -2.9180678501886446 -1.7695677896513504 -2.8584391941170937 L -1.8997953273168875 -2.6898871593219864 Q -1.9257290956319533 -2.7086605357093196 -1.9497011238175597 -2.7038033899766396 Q -1.9736731520031658 -2.6989462442439596 -1.9914036618261735 -2.6759978451404 Q -2.004854393416041 -2.658588714785976 -2.00312673649107 -2.6395620177118753 Q -2.0013990795660987 -2.620535320637774 -1.9824073009976357 -2.6058617952670096 Q -1.96658081885725 -2.593633857458039 -1.9456299675035182 -2.597034126205334 Q -1.9246791161497863 -2.600434394952629 -1.9023080845457676 -2.612215182064363 Q -1.879937052941749 -2.623995969176097 -1.8397630071592566 -2.6498232037447886 Q -1.7805989610377613 -2.688779790434764 -1.7361984038953164 -2.709445959055011 Q -1.6917978467528716 -2.730112127675258 -1.6404902183694619 -2.7302772629831997 Q -1.589182589986052 -2.730442398291142 -1.5401204953508563 -2.692535791083333 Q -1.4902670766086414 -2.654017786985076 -1.469959873306806 -2.5985212330915415 Q -1.4496526700049706 -2.5430246791980076 -1.4630823858830988 -2.478210385007353 Q -1.4765121017612273 -2.413396090816698 -1.5260352498875582 -2.349298838148136 Q -1.6012370674127276 -2.251965972984764 -1.6958298820187896 -2.2252180866214797 M -1.5751696022083659 -3.0999063545761594 Q -1.5815317385992167 -3.192069379811577 -1.5378552924188675 -3.273079367152985 Q -1.4941788462385184 -3.354089354494393 -1.4060200206642972 -3.409262005992885 Q -1.2941261266662474 -3.4792888328948166 -1.180434143663136 -3.4672728851244488 Q -1.0667421606600245 -3.45525693735408 -0.9805111962730314 -3.3664806973971575 L -1.159371890466884 -3.254543875606948 Q -1.1966980803308251 -3.2783714971886546 -1.236236025890486 -3.278400838648839 Q -1.275773971450147 -3.278430180109023 -1.3130719361161636 -3.2550879044750456 Q -1.3707142451454621 -3.2190134784952624 -1.3793157724346843 -3.156415445552583 Q -1.3879172997239062 -3.0938174126099036 -1.3449462923068116 -3.0251552503838273 Q -1.3014447786253083 -2.955645407142615 -1.2413841436884543 -2.93601838161703 Q -1.1813235087516003 -2.9163913560914456 -1.1236811997223017 -2.952465782071229 Q -1.0863832350562852 -2.975808057705206 -1.0691265526017844 -3.011381318880765 Q -1.0518698701472835 -3.046954580056324 -1.0569841814360286 -3.0909414396855563 L -0.8781234872421761 -3.2028782614757665 Q -0.8359719356422936 -3.0865156957695974 -0.8748625353637958 -2.9790086204056854 Q -0.9137531350852979 -2.871501545041773 -1.0256470290833477 -2.8014747181398407 Q -1.1138058546575689 -2.746302066641349 -1.2057583708990984 -2.7424310516773844 Q -1.297710887140628 -2.73856003671342 -1.3778212718483753 -2.7845690169452917 Q -1.4579316565561227 -2.830577997177163 -1.5136348143190232 -2.919584503766521 Q -1.5688074658175153 -3.007743329340742 -1.5751696022083659 -3.0999063545761594 M -0.5001021743774582 -3.083811295995968 Q -0.5895314117287962 -3.116271448595086 -0.6507389986337629 -3.1898386376488412 Q -0.7119465855387297 -3.2634058267025967 -0.728771195906964 -3.3660359026353226 Q -0.7455958062751983 -3.4686659785680485 -0.711081110819834 -3.557925352292176 Q -0.6765664153644699 -3.6471847260163033 -0.6021013747348788 -3.7060061313381194 Q -0.5276363341052877 -3.764827536659935 -0.4299403964385581 -3.7808432715296965 Q -0.33125763111862927 -3.797020781499153 -0.24240269514373813 -3.7649731551767864 Q -0.1535477591688471 -3.7329255288544205 -0.09283358609047998 -3.6592774522508185 Q -0.03211941301211285 -3.585629375647216 -0.015294802643878613 -3.48299929971449 Q 0.0015298077243557362 -3.3803692237817637 -0.032491473904408874 -3.291190737607484 Q -0.06651275553317348 -3.2020122514332034 -0.14089690861291726 -3.142697432284788 Q -0.2152810616926611 -3.0833826131363726 -0.31297699935939066 -3.0673668782666113 Q -0.4106729370261202 -3.0513511433968494 -0.5001021743774582 -3.083811295995968 M -0.23340797048471856 -3.314494415469452 Q -0.198407947455583 -3.3698861873129307 -0.21167350563053694 -3.4508060548752724 Q -0.22526261400488007 -3.5336995777440126 -0.2760357092542353 -3.5745235020874646 Q -0.3268088045035905 -3.6153474264309167 -0.40082087849353715 -3.6032142939538248 Q -0.475819780136683 -3.590919386377038 -0.5104072768890663 -3.5361019159100064 Q -0.5449947736414494 -3.481284445442975 -0.5314056652671063 -3.398390922574235 Q -0.5179783319924578 -3.3164842273586936 -0.4676986505697022 -3.275579415465394 Q -0.4174189691469466 -3.234674603572095 -0.3424200675038007 -3.2469695111488814 Q -0.2684079935138541 -3.259102643625974 -0.23340797048471856 -3.314494415469452 M 0.29866200785689123 -3.125081889944349 Q 0.2292028123255611 -3.1900947360298764 0.20185680066615808 -3.281804580901208 Q 0.17451078900675504 -3.3735144257725405 0.19940085588378959 -3.47449206968869 Q 0.22429092276082413 -3.57546971360484 0.291125982830907 -3.643964784562015 Q 0.35796104290098985 -3.7124598555191897 0.44955803829891317 -3.737258856186007 Q 0.5411550336968365 -3.7620578568528247 0.6372779831939406 -3.7383644278064168 Q 0.7343718715748538 -3.714431671193884 0.803465261447342 -3.6500239583333234 Q 0.8725586513198302 -3.5856162454727634 0.8994191935373287 -3.494026064384494 Q 0.9262797357548271 -3.4024358832962247 0.9013896688777926 -3.301458239380075 Q 0.876499602000758 -3.200480595463925 0.8101500113725798 -3.1318658607236878 Q 0.7438004207444016 -3.06325112598345 0.6520837615634155 -3.037966655874728 Q 0.5603671023824295 -3.012682185766006 0.4642441528853254 -3.036375614812414 Q 0.36812120338822124 -3.060069043858822 0.29866200785689123 -3.125081889944349 M 0.6345850783916595 -3.2323021803864718 Q 0.6885479705774981 -3.269467436566667 0.7081728309997752 -3.349084425039016 Q 0.7282763465543032 -3.430643291278983 0.6976478920656844 -3.488144576270178 Q 0.6670194375770658 -3.545645861261373 0.5941990212913808 -3.563595428720773 Q 0.5204076661218867 -3.581784323746298 0.4670499071610154 -3.5449848732249443 Q 0.4136921482001441 -3.508185422703591 0.39358863264561617 -3.426626556463624 Q 0.3737244446572136 -3.3460386291074657 0.4038674297039277 -3.2886570078993334 Q 0.4340104147506418 -3.231275386691201 0.5078017699201358 -3.213086491665676 Q 0.5806221862058208 -3.195136924206276 0.6345850783916595 -3.2323021803864718 M 1.7289165794854964 -3.1831677099413205 L 1.6409882454550844 -3.054308841117183 L 1.4856967881542007 -3.160273756487167 L 1.1762566895471736 -2.7067896604329906 L 1.0143570851271033 -2.8172637211378673 L 1.3237971837341305 -3.2707478171920434 L 1.1701577632130435 -3.375585446228304 L 1.2580860972434555 -3.5044443150524414 L 1.7289165794854964 -3.1831677099413205 M 1.4635020489847268 -2.5259173834015662 Q 1.461494154899921 -2.624198705947329 1.5440801012223317 -2.6955889116483345 L 1.6718620513260747 -2.530202173281304 Q 1.6444172500377068 -2.5052065160136507 1.6425812811369012 -2.479777610842659 Q 1.6407453122360953 -2.4543487056716677 1.6590872189495511 -2.4306089824610893 Q 1.6755949349916617 -2.4092432315715686 1.696977256019271 -2.4036489177197864 Q 1.718359577046881 -2.398054603868004 1.7373513556153437 -2.4127281292387686 Q 1.7618824029329414 -2.431681432842673 1.757604402929262 -2.4650235790838573 Q 1.7533264029255822 -2.4983657253250415 1.7302034112938327 -2.562641126980714 Q 1.7062174803143275 -2.6313046188453613 1.6972465807711796 -2.6780809265383243 Q 1.6882756812280317 -2.724857234231287 1.7018566296202033 -2.7751569145560087 Q 1.715437578012375 -2.82545659488073 1.7684562931826668 -2.8664201865407817 Q 1.8222663324599782 -2.9079951750912816 1.8814330459256636 -2.91074290463938 Q 1.9405997593913489 -2.913490634187478 1.9970666754937427 -2.881296110027534 Q 2.053533591596137 -2.84910158586759 2.099999755270225 -2.788960953734125 Q 2.1752015727953946 -2.6916280885707526 2.1746381080897526 -2.598310445504045 Q 2.1740746433841105 -2.504992802437337 2.094833920706348 -2.4374509052955933 L 1.964606383040811 -2.606002940090701 Q 1.9893173575749794 -2.626358964692073 1.9906677008139901 -2.6507808109191062 Q 1.9920180440530006 -2.67520265714614 1.9742875342299935 -2.698151056249699 Q 1.9608368026401257 -2.7155601866041232 1.9419900327825956 -2.7186905645265624 Q 1.9231432629250653 -2.721820942449001 1.9041514843566025 -2.7071474170782364 Q 1.888325002216217 -2.694919479269266 1.8863274544663895 -2.6737887006989633 Q 1.8843299067165622 -2.6526579221286606 1.890083132073176 -2.6280378003175078 Q 1.8958363574297896 -2.6034176785063545 1.9106880317876649 -2.5580257434433102 Q 1.933451168986273 -2.490944899792702 1.9422421413128501 -2.4427658711022713 Q 1.9510331136394274 -2.3945868424118406 1.9382434893542753 -2.3448985589775675 Q 1.9254538650691229 -2.2952102755432944 1.8763917704339272 -2.2573036683354855 Q 1.8265383516917124 -2.2187856642372283 1.7677131442916194 -2.2131425290859092 Q 1.7088879368915264 -2.20749939393459 1.6495614228062796 -2.23685266847923 Q 1.5902349087210328 -2.26620594302387 1.5407117605947018 -2.330303195692432 Q 1.4655099430695326 -2.427636060855804 1.4635020489847268 -2.5259173834015662" fill="#212245" fill-rule="nonzero"></path></g><g transform="matrix(1,0,0,1,0,0)"><path d=" M -3.014995849609375 0.30149999999999993 L -3.145995849609375 0.30149999999999993 L -3.166995849609375 0.36349999999999993 L -3.256495849609375 0.36349999999999993 L -3.129495849609375 0.0124999999999999 L -3.030495849609375 0.0124999999999999 L -2.9034958496093752 0.36349999999999993 L -2.993995849609375 0.36349999999999993 L -3.014995849609375 0.30149999999999993 M -3.036995849609375 0.23549999999999993 L -3.080495849609375 0.10699999999999993 L -3.123495849609375 0.23549999999999993 L -3.036995849609375 0.23549999999999993 M -2.63649609375 0.03449999999999992 Q -2.59499609375 0.05649999999999994 -2.57224609375 0.09624999999999995 Q -2.54949609375 0.13599999999999993 -2.54949609375 0.18799999999999992 Q -2.54949609375 0.23949999999999994 -2.57224609375 0.2794999999999999 Q -2.59499609375 0.31949999999999995 -2.6367460937500002 0.3414999999999999 Q -2.67849609375 0.36349999999999993 -2.73349609375 0.36349999999999993 L -2.86499609375 0.36349999999999993 L -2.86499609375 0.0124999999999999 L -2.73349609375 0.0124999999999999 Q -2.67799609375 0.0124999999999999 -2.63649609375 0.03449999999999992 M -2.66349609375 0.2629999999999999 Q -2.63649609375 0.23649999999999993 -2.63649609375 0.18799999999999992 Q -2.63649609375 0.13949999999999993 -2.66349609375 0.11249999999999993 Q -2.69049609375 0.08549999999999991 -2.73899609375 0.08549999999999991 L -2.77949609375 0.08549999999999991 L -2.77949609375 0.2894999999999999 L -2.73899609375 0.2894999999999999 Q -2.69049609375 0.2894999999999999 -2.66349609375 0.2629999999999999 M -2.172001220703125 0.0124999999999999 L -2.296501220703125 0.36349999999999993 L -2.403501220703125 0.36349999999999993 L -2.528001220703125 0.0124999999999999 L -2.437001220703125 0.0124999999999999 L -2.350001220703125 0.2774999999999999 L -2.262501220703125 0.0124999999999999 L -2.172001220703125 0.0124999999999999 M -2.051010986328125 0.0809999999999999 L -2.051010986328125 0.15199999999999994 L -1.936510986328125 0.15199999999999994 L -1.936510986328125 0.21799999999999994 L -2.051010986328125 0.21799999999999994 L -2.051010986328125 0.29499999999999993 L -1.921510986328125 0.29499999999999993 L -1.921510986328125 0.36349999999999993 L -2.136510986328125 0.36349999999999993 L -2.136510986328125 0.0124999999999999 L -1.921510986328125 0.0124999999999999 L -1.921510986328125 0.0809999999999999 L -2.051010986328125 0.0809999999999999 M -1.552003173828125 0.36349999999999993 L -1.637503173828125 0.36349999999999993 L -1.780503173828125 0.14699999999999994 L -1.780503173828125 0.36349999999999993 L -1.866003173828125 0.36349999999999993 L -1.866003173828125 0.0124999999999999 L -1.780503173828125 0.0124999999999999 L -1.637503173828125 0.22999999999999993 L -1.637503173828125 0.0124999999999999 L -1.552003173828125 0.0124999999999999 L -1.552003173828125 0.36349999999999993 M -1.23749609375 0.0124999999999999 L -1.23749609375 0.0809999999999999 L -1.3304960937499999 0.0809999999999999 L -1.3304960937499999 0.36349999999999993 L -1.41599609375 0.36349999999999993 L -1.41599609375 0.0809999999999999 L -1.50899609375 0.0809999999999999 L -1.50899609375 0.0124999999999999 L -1.23749609375 0.0124999999999999 M -1.110494384765625 0.0124999999999999 L -1.110494384765625 0.22249999999999992 Q -1.110494384765625 0.25399999999999995 -1.094994384765625 0.2709999999999999 Q -1.079494384765625 0.2879999999999999 -1.049494384765625 0.2879999999999999 Q -1.019494384765625 0.2879999999999999 -1.003494384765625 0.2709999999999999 Q -0.987494384765625 0.25399999999999995 -0.987494384765625 0.22249999999999992 L -0.987494384765625 0.0124999999999999 L -0.901994384765625 0.0124999999999999 L -0.901994384765625 0.22199999999999992 Q -0.901994384765625 0.2689999999999999 -0.921994384765625 0.30149999999999993 Q -0.9419943847656249 0.3339999999999999 -0.975744384765625 0.3504999999999999 Q -1.009494384765625 0.36699999999999994 -1.050994384765625 0.36699999999999994 Q -1.092494384765625 0.36699999999999994 -1.125244384765625 0.35074999999999995 Q -1.157994384765625 0.3344999999999999 -1.176994384765625 0.30174999999999996 Q -1.195994384765625 0.2689999999999999 -1.195994384765625 0.22199999999999992 L -1.195994384765625 0.0124999999999999 L -1.110494384765625 0.0124999999999999 M -0.66298583984375 0.36349999999999993 L -0.73598583984375 0.23099999999999993 L -0.75648583984375 0.23099999999999993 L -0.75648583984375 0.36349999999999993 L -0.84198583984375 0.36349999999999993 L -0.84198583984375 0.0124999999999999 L -0.69848583984375 0.0124999999999999 Q -0.65698583984375 0.0124999999999999 -0.62773583984375 0.026999999999999913 Q -0.59848583984375 0.041499999999999926 -0.5839858398437501 0.06674999999999992 Q -0.56948583984375 0.09199999999999992 -0.56948583984375 0.12299999999999994 Q -0.56948583984375 0.15799999999999992 -0.58923583984375 0.18549999999999994 Q -0.60898583984375 0.21299999999999994 -0.64748583984375 0.22449999999999992 L -0.56648583984375 0.36349999999999993 L -0.66298583984375 0.36349999999999993 M -0.75648583984375 0.17049999999999993 L -0.70348583984375 0.17049999999999993 Q -0.6799858398437499 0.17049999999999993 -0.66823583984375 0.15899999999999992 Q -0.65648583984375 0.14749999999999994 -0.65648583984375 0.12649999999999992 Q -0.65648583984375 0.10649999999999993 -0.66823583984375 0.09499999999999992 Q -0.6799858398437499 0.08349999999999991 -0.70348583984375 0.08349999999999991 L -0.75648583984375 0.08349999999999991 L -0.75648583984375 0.17049999999999993 M -0.4304970703125 0.0809999999999999 L -0.4304970703125 0.15199999999999994 L -0.3159970703125 0.15199999999999994 L -0.3159970703125 0.21799999999999994 L -0.4304970703125 0.21799999999999994 L -0.4304970703125 0.29499999999999993 L -0.3009970703125 0.29499999999999993 L -0.3009970703125 0.36349999999999993 L -0.5159970703125 0.36349999999999993 L -0.5159970703125 0.0124999999999999 L -0.3009970703125 0.0124999999999999 L -0.3009970703125 0.0809999999999999 L -0.4304970703125 0.0809999999999999 M -0.081501708984375 0.3544999999999999 Q -0.112001708984375 0.3419999999999999 -0.130251708984375 0.31749999999999995 Q -0.148501708984375 0.2929999999999999 -0.149501708984375 0.25849999999999995 L -0.058501708984375 0.25849999999999995 Q -0.056501708984374996 0.2779999999999999 -0.045001708984375 0.28824999999999995 Q -0.03350170898437499 0.29849999999999993 -0.015001708984375 0.29849999999999993 Q 0.003998291015625016 0.29849999999999993 0.014998291015624998 0.28974999999999995 Q 0.025998291015625008 0.2809999999999999 0.025998291015625008 0.26549999999999996 Q 0.025998291015625008 0.25249999999999995 0.017248291015625 0.24399999999999994 Q 0.008498291015624992 0.23549999999999993 -0.004251708984374991 0.22999999999999993 Q -0.017001708984375002 0.22449999999999992 -0.040501708984374996 0.21749999999999994 Q -0.074501708984375 0.20699999999999993 -0.096001708984375 0.19649999999999992 Q -0.11750170898437501 0.18599999999999994 -0.133001708984375 0.16549999999999992 Q -0.148501708984375 0.14499999999999993 -0.148501708984375 0.11199999999999993 Q -0.148501708984375 0.06299999999999994 -0.113001708984375 0.03524999999999995 Q -0.077501708984375 0.007499999999999951 -0.020501708984375006 0.007499999999999951 Q 0.03749829101562502 0.007499999999999951 0.072998291015625 0.03524999999999995 Q 0.10849829101562503 0.06299999999999994 0.11099829101562503 0.11249999999999993 L 0.018498291015625 0.11249999999999993 Q 0.017498291015625 0.09549999999999992 0.00599829101562499 0.08574999999999994 Q -0.005501708984374992 0.0759999999999999 -0.023501708984375008 0.0759999999999999 Q -0.039001708984374994 0.0759999999999999 -0.048501708984375 0.08424999999999994 Q -0.058001708984375 0.09249999999999992 -0.058001708984375 0.10799999999999993 Q -0.058001708984375 0.12499999999999992 -0.042001708984375 0.13449999999999993 Q -0.02600170898437501 0.14399999999999993 0.007998291015624992 0.15499999999999994 Q 0.041998291015624994 0.16649999999999993 0.06324829101562501 0.17699999999999994 Q 0.084498291015625 0.18749999999999994 0.09999829101562502 0.20749999999999993 Q 0.11549829101562503 0.22749999999999992 0.11549829101562503 0.25899999999999995 Q 0.11549829101562503 0.2889999999999999 0.10024829101562499 0.31349999999999995 Q 0.084998291015625 0.3379999999999999 0.05599829101562501 0.3524999999999999 Q 0.02699829101562501 0.36699999999999994 -0.012501708984374998 0.36699999999999994 Q -0.05100170898437499 0.36699999999999994 -0.081501708984375 0.3544999999999999 M 0.42049340820312503 0.0124999999999999 L 0.42049340820312503 0.0809999999999999 L 0.327493408203125 0.0809999999999999 L 0.327493408203125 0.36349999999999993 L 0.24199340820312498 0.36349999999999993 L 0.24199340820312498 0.0809999999999999 L 0.148993408203125 0.0809999999999999 L 0.148993408203125 0.0124999999999999 L 0.42049340820312503 0.0124999999999999 M 0.6819951171875 0.30149999999999993 L 0.5509951171875 0.30149999999999993 L 0.5299951171875 0.36349999999999993 L 0.4404951171875 0.36349999999999993 L 0.5674951171875 0.0124999999999999 L 0.6664951171875 0.0124999999999999 L 0.7934951171875 0.36349999999999993 L 0.7029951171875 0.36349999999999993 L 0.6819951171875 0.30149999999999993 M 0.6599951171875 0.23549999999999993 L 0.6164951171874999 0.10699999999999993 L 0.5734951171875 0.23549999999999993 L 0.6599951171875 0.23549999999999993 M 1.010994873046875 0.36349999999999993 L 0.937994873046875 0.23099999999999993 L 0.917494873046875 0.23099999999999993 L 0.917494873046875 0.36349999999999993 L 0.831994873046875 0.36349999999999993 L 0.831994873046875 0.0124999999999999 L 0.975494873046875 0.0124999999999999 Q 1.016994873046875 0.0124999999999999 1.046244873046875 0.026999999999999913 Q 1.075494873046875 0.041499999999999926 1.089994873046875 0.06674999999999992 Q 1.104494873046875 0.09199999999999992 1.104494873046875 0.12299999999999994 Q 1.104494873046875 0.15799999999999992 1.084744873046875 0.18549999999999994 Q 1.064994873046875 0.21299999999999994 1.026494873046875 0.22449999999999992 L 1.107494873046875 0.36349999999999993 L 1.010994873046875 0.36349999999999993 M 0.917494873046875 0.17049999999999993 L 0.970494873046875 0.17049999999999993 Q 0.9939948730468751 0.17049999999999993 1.005744873046875 0.15899999999999992 Q 1.017494873046875 0.14749999999999994 1.017494873046875 0.12649999999999992 Q 1.017494873046875 0.10649999999999993 1.005744873046875 0.09499999999999992 Q 0.9939948730468751 0.08349999999999991 0.970494873046875 0.08349999999999991 L 0.917494873046875 0.08349999999999991 L 0.917494873046875 0.17049999999999993 M 1.410483642578125 0.0124999999999999 L 1.410483642578125 0.0809999999999999 L 1.3174836425781251 0.0809999999999999 L 1.3174836425781251 0.36349999999999993 L 1.231983642578125 0.36349999999999993 L 1.231983642578125 0.0809999999999999 L 1.138983642578125 0.0809999999999999 L 1.138983642578125 0.0124999999999999 L 1.410483642578125 0.0124999999999999 M 1.5114853515625 0.3544999999999999 Q 1.4809853515625 0.3419999999999999 1.4627353515625 0.31749999999999995 Q 1.4444853515625 0.2929999999999999 1.4434853515625 0.25849999999999995 L 1.5344853515625 0.25849999999999995 Q 1.5364853515625 0.2779999999999999 1.5479853515625 0.28824999999999995 Q 1.5594853515625 0.29849999999999993 1.5779853515625 0.29849999999999993 Q 1.5969853515625 0.29849999999999993 1.6079853515625 0.28974999999999995 Q 1.6189853515625 0.2809999999999999 1.6189853515625 0.26549999999999996 Q 1.6189853515625 0.25249999999999995 1.6102353515625 0.24399999999999994 Q 1.6014853515625 0.23549999999999993 1.5887353515625 0.22999999999999993 Q 1.5759853515625 0.22449999999999992 1.5524853515625 0.21749999999999994 Q 1.5184853515625 0.20699999999999993 1.4969853515625 0.19649999999999992 Q 1.4754853515625 0.18599999999999994 1.4599853515625 0.16549999999999992 Q 1.4444853515625 0.14499999999999993 1.4444853515625 0.11199999999999993 Q 1.4444853515625 0.06299999999999994 1.4799853515625 0.03524999999999995 Q 1.5154853515625 0.007499999999999951 1.5724853515625 0.007499999999999951 Q 1.6304853515625 0.007499999999999951 1.6659853515625 0.03524999999999995 Q 1.7014853515625 0.06299999999999994 1.7039853515625 0.11249999999999993 L 1.6114853515625 0.11249999999999993 Q 1.6104853515625 0.09549999999999992 1.5989853515624999 0.08574999999999994 Q 1.5874853515625 0.0759999999999999 1.5694853515625 0.0759999999999999 Q 1.5539853515625 0.0759999999999999 1.5444853515624999 0.08424999999999994 Q 1.5349853515625 0.09249999999999992 1.5349853515625 0.10799999999999993 Q 1.5349853515625 0.12499999999999992 1.5509853515625 0.13449999999999993 Q 1.5669853515625 0.14399999999999993 1.6009853515625 0.15499999999999994 Q 1.6349853515625 0.16649999999999993 1.6562353515625001 0.17699999999999994 Q 1.6774853515625 0.18749999999999994 1.6929853515625 0.20749999999999993 Q 1.7084853515625 0.22749999999999992 1.7084853515625 0.25899999999999995 Q 1.7084853515625 0.2889999999999999 1.6932353515625 0.31349999999999995 Q 1.6779853515625 0.3379999999999999 1.6489853515625 0.3524999999999999 Q 1.6199853515625 0.36699999999999994 1.5804853515625 0.36699999999999994 Q 1.5419853515625 0.36699999999999994 1.5114853515625 0.3544999999999999 M 2.170968017578125 0.0124999999999999 L 2.170968017578125 0.36349999999999993 L 2.085468017578125 0.36349999999999993 L 2.085468017578125 0.21899999999999994 L 1.952468017578125 0.21899999999999994 L 1.952468017578125 0.36349999999999993 L 1.866968017578125 0.36349999999999993 L 1.866968017578125 0.0124999999999999 L 1.952468017578125 0.0124999999999999 L 1.952468017578125 0.14999999999999994 L 2.085468017578125 0.14999999999999994 L 2.085468017578125 0.0124999999999999 L 2.170968017578125 0.0124999999999999 M 2.31797705078125 0.0809999999999999 L 2.31797705078125 0.15199999999999994 L 2.43247705078125 0.15199999999999994 L 2.43247705078125 0.21799999999999994 L 2.31797705078125 0.21799999999999994 L 2.31797705078125 0.29499999999999993 L 2.44747705078125 0.29499999999999993 L 2.44747705078125 0.36349999999999993 L 2.23247705078125 0.36349999999999993 L 2.23247705078125 0.0124999999999999 L 2.44747705078125 0.0124999999999999 L 2.44747705078125 0.0809999999999999 L 2.31797705078125 0.0809999999999999 M 2.68198486328125 0.36349999999999993 L 2.60898486328125 0.23099999999999993 L 2.58848486328125 0.23099999999999993 L 2.58848486328125 0.36349999999999993 L 2.50298486328125 0.36349999999999993 L 2.50298486328125 0.0124999999999999 L 2.64648486328125 0.0124999999999999 Q 2.68798486328125 0.0124999999999999 2.71723486328125 0.026999999999999913 Q 2.74648486328125 0.041499999999999926 2.76098486328125 0.06674999999999992 Q 2.77548486328125 0.09199999999999992 2.77548486328125 0.12299999999999994 Q 2.77548486328125 0.15799999999999992 2.75573486328125 0.18549999999999994 Q 2.7359848632812502 0.21299999999999994 2.69748486328125 0.22449999999999992 L 2.7784848632812498 0.36349999999999993 L 2.68198486328125 0.36349999999999993 M 2.58848486328125 0.17049999999999993 L 2.64148486328125 0.17049999999999993 Q 2.66498486328125 0.17049999999999993 2.67673486328125 0.15899999999999992 Q 2.68848486328125 0.14749999999999994 2.68848486328125 0.12649999999999992 Q 2.68848486328125 0.10649999999999993 2.67673486328125 0.09499999999999992 Q 2.66498486328125 0.08349999999999991 2.64148486328125 0.08349999999999991 L 2.58848486328125 0.08349999999999991 L 2.58848486328125 0.17049999999999993 M 2.9144736328125 0.0809999999999999 L 2.9144736328125 0.15199999999999994 L 3.0289736328125 0.15199999999999994 L 3.0289736328125 0.21799999999999994 L 2.9144736328125 0.21799999999999994 L 2.9144736328125 0.29499999999999993 L 3.0439736328125 0.29499999999999993 L 3.0439736328125 0.36349999999999993 L 2.8289736328125 0.36349999999999993 L 2.8289736328125 0.0124999999999999 L 3.0439736328125 0.0124999999999999 L 3.0439736328125 0.0809999999999999 L 2.9144736328125 0.0809999999999999 M 3.2119814453125 -5.551115123125783e-17 L 3.2019814453125 0.23949999999999994 L 3.1294814453125 0.23949999999999994 L 3.1194814453125 -5.551115123125783e-17 L 3.2119814453125 -5.551115123125783e-17 M 3.1302314453125 0.35424999999999995 Q 3.1159814453125 0.3409999999999999 3.1159814453125 0.32149999999999995 Q 3.1159814453125 0.30149999999999993 3.1302314453125 0.2879999999999999 Q 3.1444814453125 0.27449999999999997 3.1669814453125 0.27449999999999997 Q 3.1889814453125 0.27449999999999997 3.2032314453125 0.2879999999999999 Q 3.2174814453125 0.30149999999999993 3.2174814453125 0.32149999999999995 Q 3.2174814453125 0.3409999999999999 3.2032314453125 0.35424999999999995 Q 3.1889814453125 0.36749999999999994 3.1669814453125 0.36749999999999994 Q 3.1444814453125 0.36749999999999994 3.1302314453125 0.35424999999999995" fill="#212245" fill-rule="nonzero"></path></g><g transform="matrix(1,0,0,1,0,0)"><g clip-path="url(#SvgjsClipPath17240)"><g clip-path="url(#aa520e368-8b63-4163-8cdb-f23b348dba5236180723-6cf7-44a2-9f63-bd3f576c76f4)"><path d=" M 1.6854231338898362 -0.8247617423139122 C 1.636152625689482 -0.9805069986235373 1.5004654705712483 -1.0908468980780053 1.3401634042546542 -1.1185539303525232 C 1.332805960286156 -1.2019234815440583 1.262985307952794 -1.2658639423683131 1.1792917366871887 -1.265877225309982 L 1.0987338454925548 -1.265877225309982 C 1.0982456158489509 -1.4301665003826742 1.0885623945841414 -1.582656892401607 1.0638254259748803 -1.7157401560872871 C 1.0737120762578583 -1.7146416393891784 1.0837207839517369 -1.713746551709238 1.0938922348601503 -1.713176950458367 C 1.109271468633671 -1.7123225485820601 1.122372297403707 -1.7200935370760881 1.1224129832073406 -1.729736072537264 L 1.1231860134763805 -2.105917012934023 C 1.1231860134763805 -2.1155595483951988 1.1101258705099775 -2.123411908496494 1.0947466367364571 -2.122598192423821 C 0.9261853522822308 -2.1139321162498526 0.7937123756510558 -2.026010094597528 0.7934682608292536 -1.9185182013974154 C 0.7934682608292536 -1.9167687118411685 0.7937937472583227 -1.9150599080885549 0.7938751188655901 -1.9133511043359415 L 0.6536718395440206 -1.8254290826836166 C 0.6259933076481103 -1.8072880669656932 0.6179133573807865 -1.7703380589528497 0.6354938276252731 -1.7423001445301685 C 0.6530742978697592 -1.7142622301074872 0.6898542635037952 -1.7054405059885425 0.7182402099106291 -1.72245331368684 L 0.8488823253782893 -1.8043945222050177 C 0.8720060998274706 -1.783246729073581 0.8983296342879701 -1.7658899489180928 0.9268770109440028 -1.7529676664120801 C 0.9997045994482425 -1.2569263485105782 0.6981821087192377 -0.9840466635396652 0.49190508429661506 -0.9835177480924278 C -0.15117472793690978 -0.9840466635396652 -0.26908218686723706 -1.1098064825712879 -0.20101483738813508 -1.4461153354070664 C -0.17181032673924568 -1.461227808202255 -0.15345514773720437 -1.4913491275902209 -0.1534124471367606 -1.524232078383681 L -0.1534124471367606 -1.7006050371355683 C -0.1534124446199201 -1.724027572868961 -0.16271979452149243 -1.746490188451981 -0.17928584329378072 -1.763048606658941 C -0.19585189206606923 -1.7796070248659008 -0.21831879335448012 -1.7889040247861776 -0.24174132671312965 -1.7888932310206476 L -1.0875991843690755 -1.7888932310206476 C -1.1110217177277113 -1.7889040248159167 -1.133488619027947 -1.7796070249242153 -1.1500546678212955 -1.7630486067383255 C -1.166620716614645 -1.7464901885524355 -1.1759280665447867 -1.7240275729812533 -1.1759280640577372 -1.700605037135568 L -1.1759280640577372 -1.524232078383681 C -1.1759280640577372 -1.4918868644949264 -1.1584331684952658 -1.4636509167731708 -1.1324756257769955 -1.4482716829996498 C -1.4419725340181961 -1.4201171068851617 -1.686941757696423 -1.0532532155205094 -1.686941757696423 -0.6046108588522139 L -1.3916441949233673 -0.6046108588522139 C -1.3867618984873287 -0.3738002948384984 -1.1976542831981078 -0.18749999999999978 -0.9656638308790166 -0.18749999999999978 C -0.7337140643635589 -0.18749999999999978 -0.5445657632707044 -0.3738002948384984 -0.5397241526382996 -0.6046108588522139 L 0.8201174622092964 -0.6046108588522139 L 0.821419407925573 -0.6040819434049765 C 0.8265458191834134 -0.37351549421306296 1.0155720628653668 -0.18749999999999978 1.2473590861662904 -0.18749999999999978 C 1.4823602879542719 -0.18749999999999978 1.6735428792288087 -0.37868259127453663 1.6735428792288087 -0.6136837930625187 C 1.6735428792288087 -0.6713355768114053 1.6619881109968517 -0.7263834691277382 1.6411162937327872 -0.7765897508116666 L 1.6576347300080507 -0.7802514731386954 C 1.6784251756648478 -0.7848082831456646 1.6915666902385178 -0.8053952997842933 1.6854231338898362 -0.8247617423139122 M -0.9036179803376947 -1.2813785164944038 L -0.5050598479424266 -1.2813785164944038 C -0.4915665235390996 -1.2813785164944038 -0.48062802286041806 -1.2704400158157219 -0.48062802286041806 -1.256946691412395 C -0.48062802286041806 -1.2434533670090682 -0.4915665235390996 -1.2325148663303862 -0.5050598479424266 -1.2325148663303862 L -0.9036179803376947 -1.2325148663303862 C -0.9171113047410219 -1.2325148663303862 -0.9280498054197037 -1.2434533670090682 -0.9280498054197037 -1.256946691412395 C -0.9280498054197037 -1.2704400158157219 -0.9171113047410219 -1.2813785164944038 -0.9036179803376947 -1.2813785164944038 M -0.9656638308790161 -0.4147708990975876 C -1.0718753281864695 -0.41494177440929625 -1.1592233144156157 -0.49851071099842814 -1.164088495200344 -0.6046108588522139 L -1.0976078920629542 -0.6046108588522139 C -1.0975672062593196 -0.6037157711722736 -1.0976078920629542 -0.6028206834923333 -1.0975265204556868 -0.601925595812393 C -1.091721901708845 -0.53292070228475 -1.0336617388301645 -0.4800823389511648 -0.9644167258251932 -0.48078739462199604 C -0.8951717128202226 -0.48149245029282706 -0.8381994807396133 -0.5355020783699038 -0.8338011413023457 -0.6046108588522139 L -0.7672798523613226 -0.6046108588522139 C -0.7721442763620286 -0.4985264028459804 -0.8594680807555145 -0.41496346779675863 -0.9656638308790161 -0.4147708990975876 M -0.5738595418869341 -0.9656159944936202 L -0.834818286393187 -0.9656159944936202 C -0.8483116107965138 -0.9656159944936202 -0.8592501114751957 -0.9765544951723022 -0.8592501114751957 -0.990047819575629 C -0.8592501114751957 -1.003541143978956 -0.8483116107965138 -1.0144796446576378 -0.834818286393187 -1.0144796446576378 L -0.5738595418869341 -1.0144796446576378 C -0.5603662174836073 -1.0144796446576378 -0.5494277168049255 -1.003541143978956 -0.5494277168049255 -0.990047819575629 C -0.5494277168049255 -0.9765544951723022 -0.5603662174836073 -0.9656159944936202 -0.5738595418869341 -0.9656159944936202 M -0.4387419880195713 -1.099065430412003 L -0.96993584026055 -1.099065430412003 C -0.9834291646638769 -1.099065430412003 -0.9943676653425587 -1.110003931090685 -0.9943676653425587 -1.1234972554940121 C -0.9943676653425587 -1.136990579897339 -0.9834291646638769 -1.1479290805760207 -0.96993584026055 -1.147929080576021 L -0.43874198801957176 -1.147929080576021 C -0.4252486636162449 -1.147929080576021 -0.41431016293756295 -1.136990579897339 -0.41431016293756295 -1.1234972554940121 C -0.41431016293756295 -1.110003931090685 -0.4252486636162449 -1.099065430412003 -0.43874198801957176 -1.099065430412003 M 1.2473590861662904 -0.4147708990975876 C 1.1375556104479307 -0.41488306716760026 1.0485765844843251 -0.5038802966962554 1.0484868780049927 -0.6136837930625187 C 1.0484868780049927 -0.624913074865407 1.049626080506735 -0.6358168702392262 1.051416255866616 -0.6465579223985107 L 1.1245286449962912 -0.6626695006374372 C 1.1167735417089317 -0.6434165277670014 1.1136921355727796 -0.6225996075802374 1.1155370823932533 -0.6019255958123926 C 1.1238211962468725 -0.5306767907044498 1.1873387816262677 -0.47898414066860484 1.2587848899126914 -0.48534593148361505 C 1.3302309981991152 -0.49170772229862525 1.3836159403282222 -0.5538097486265081 1.3791810899393275 -0.6254013045090103 C 1.3763479664265503 -0.6576223556044967 1.3617313675401945 -0.687666781858514 1.338129114072971 -0.7097836612452078 L 1.4113635606135468 -0.7259359252877682 C 1.4333338945757195 -0.6939568836317169 1.4462312943275881 -0.655305370179746 1.4462312943275881 -0.6136837930625187 C 1.4461192044462088 -0.5038895789147215 1.3571532750876356 -0.4149054486704169 1.2473590861663126 -0.41477089909758713" fill="#212245" transform="matrix(1,0,0,1,0,0)" fill-rule="nonzero"></path></g></g></g></g><defs><clipPath id="SvgjsClipPath17240"><path d=" M -1.686941757696423 -2.122656228551219 h 3.373883515392846 v 1.9351562285512192 h -3.373883515392846 Z"></path></clipPath><clipPath id="aa520e368-8b63-4163-8cdb-f23b348dba5236180723-6cf7-44a2-9f63-bd3f576c76f4"><path d=" M -1.686941757696423 -0.18749999999999978 L 1.6869285086242813 -0.18749999999999978 L 1.6869285086242813 -2.122679564031088 L -1.686941757696423 -2.122679564031088 Z"></path></clipPath></defs></svg>